<svg xmlns="http://www.w3.org/2000/svg" xmlns:xlink="http://www.w3.org/1999/xlink" width="500" zoomAndPan="magnify" viewBox="0 0 375 374.999991" height="500" preserveAspectRatio="xMidYMid meet" version="1.0"><defs><g/></defs><g fill="#000000" fill-opacity="1"><g transform="translate(37.500002, 193.183513)"><g><path d="M 33.125 -57.046875 L 56.15625 0 L 42.1875 0 L 37.96875 -11.40625 L 16.25 -11.40625 L 12.03125 0 L -1.9375 0 L 21.09375 -57.046875 Z M 33.546875 -22.828125 L 27.171875 -39.421875 L 27.046875 -39.421875 L 20.671875 -22.828125 Z M 33.546875 -22.828125 "/></g></g></g><g fill="#000000" fill-opacity="1"><g transform="translate(88.263342, 193.183513)"><g><path d="M 4.15625 0 L 4.15625 -59.46875 L 16.390625 -59.46875 L 16.390625 0 Z M 4.15625 0 "/></g></g></g><g fill="#000000" fill-opacity="1"><g transform="translate(105.34583, 193.183513)"><g/></g></g><g fill="#000000" fill-opacity="1"><g transform="translate(120.768483, 193.183513)"><g><path d="M 25.171875 -58.09375 C 28.265625 -58.09375 31.285156 -57.640625 34.234375 -56.734375 C 37.179688 -55.835938 39.367188 -54.953125 40.796875 -54.078125 L 42.875 -52.703125 L 37.625 -42.328125 C 37.207031 -42.597656 36.628906 -42.953125 35.890625 -43.390625 C 35.148438 -43.828125 33.765625 -44.414062 31.734375 -45.15625 C 29.710938 -45.894531 27.828125 -46.265625 26.078125 -46.265625 C 23.910156 -46.265625 22.238281 -45.800781 21.0625 -44.875 C 19.882812 -43.957031 19.296875 -42.710938 19.296875 -41.140625 C 19.296875 -40.359375 19.570312 -39.632812 20.125 -38.96875 C 20.675781 -38.300781 21.617188 -37.585938 22.953125 -36.828125 C 24.296875 -36.066406 25.472656 -35.453125 26.484375 -34.984375 C 27.503906 -34.523438 29.070312 -33.835938 31.1875 -32.921875 C 34.875 -31.347656 38.019531 -29.210938 40.625 -26.515625 C 43.226562 -23.816406 44.53125 -20.765625 44.53125 -17.359375 C 44.53125 -14.085938 43.941406 -11.226562 42.765625 -8.78125 C 41.597656 -6.34375 39.988281 -4.429688 37.9375 -3.046875 C 35.882812 -1.660156 33.613281 -0.632812 31.125 0.03125 C 28.632812 0.695312 25.9375 1.03125 23.03125 1.03125 C 20.539062 1.03125 18.097656 0.773438 15.703125 0.265625 C 13.304688 -0.234375 11.300781 -0.863281 9.6875 -1.625 C 8.070312 -2.382812 6.617188 -3.132812 5.328125 -3.875 C 4.035156 -4.613281 3.085938 -5.234375 2.484375 -5.734375 L 1.59375 -6.5 L 8.09375 -17.421875 C 8.644531 -16.960938 9.40625 -16.375 10.375 -15.65625 C 11.34375 -14.945312 13.054688 -13.992188 15.515625 -12.796875 C 17.984375 -11.597656 20.164062 -11 22.0625 -11 C 27.550781 -11 30.296875 -12.863281 30.296875 -16.59375 C 30.296875 -17.375 30.097656 -18.097656 29.703125 -18.765625 C 29.304688 -19.441406 28.613281 -20.113281 27.625 -20.78125 C 26.632812 -21.445312 25.757812 -21.972656 25 -22.359375 C 24.238281 -22.753906 22.992188 -23.351562 21.265625 -24.15625 C 19.535156 -24.96875 18.253906 -25.582031 17.421875 -26 C 13.960938 -27.707031 11.285156 -29.835938 9.390625 -32.390625 C 7.503906 -34.953125 6.5625 -37.707031 6.5625 -40.65625 C 6.5625 -45.78125 8.453125 -49.96875 12.234375 -53.21875 C 16.015625 -56.46875 20.328125 -58.09375 25.171875 -58.09375 Z M 25.171875 -58.09375 "/></g></g></g><g fill="#000000" fill-opacity="1"><g transform="translate(163.785921, 193.183513)"><g><path d="M 40.046875 -16.046875 L 14.3125 -16.046875 C 14.3125 -13.554688 15.117188 -11.710938 16.734375 -10.515625 C 18.347656 -9.316406 20.097656 -8.71875 21.984375 -8.71875 C 23.972656 -8.71875 25.539062 -8.976562 26.6875 -9.5 C 27.84375 -10.03125 29.160156 -11.082031 30.640625 -12.65625 L 39.484375 -8.234375 C 35.796875 -2.054688 29.664062 1.03125 21.09375 1.03125 C 15.75 1.03125 11.160156 -0.796875 7.328125 -4.453125 C 3.503906 -8.117188 1.59375 -12.535156 1.59375 -17.703125 C 1.59375 -22.867188 3.503906 -27.296875 7.328125 -30.984375 C 11.160156 -34.671875 15.75 -36.515625 21.09375 -36.515625 C 26.71875 -36.515625 31.289062 -34.890625 34.8125 -31.640625 C 38.34375 -28.390625 40.109375 -23.742188 40.109375 -17.703125 C 40.109375 -16.867188 40.085938 -16.316406 40.046875 -16.046875 Z M 14.65625 -22.828125 L 28.140625 -22.828125 C 27.867188 -24.671875 27.144531 -26.085938 25.96875 -27.078125 C 24.789062 -28.066406 23.28125 -28.5625 21.4375 -28.5625 C 19.40625 -28.5625 17.789062 -28.03125 16.59375 -26.96875 C 15.394531 -25.90625 14.75 -24.523438 14.65625 -22.828125 Z M 14.65625 -22.828125 "/></g></g></g><g fill="#000000" fill-opacity="1"><g transform="translate(202.03133, 193.183513)"><g><path d="M 4.15625 0 L 4.15625 -35.484375 L 16.390625 -35.484375 L 16.390625 -31.75 L 16.53125 -31.75 C 19.707031 -34.925781 23.09375 -36.515625 26.6875 -36.515625 C 28.445312 -36.515625 30.191406 -36.28125 31.921875 -35.8125 C 33.648438 -35.351562 35.304688 -34.640625 36.890625 -33.671875 C 38.484375 -32.710938 39.773438 -31.34375 40.765625 -29.5625 C 41.753906 -27.789062 42.25 -25.726562 42.25 -23.375 L 42.25 0 L 30.015625 0 L 30.015625 -20.0625 C 30.015625 -21.90625 29.425781 -23.515625 28.25 -24.890625 C 27.070312 -26.273438 25.539062 -26.96875 23.65625 -26.96875 C 21.8125 -26.96875 20.140625 -26.253906 18.640625 -24.828125 C 17.140625 -23.398438 16.390625 -21.8125 16.390625 -20.0625 L 16.390625 0 Z M 4.15625 0 "/></g></g></g><g fill="#000000" fill-opacity="1"><g transform="translate(244.288006, 193.183513)"><g><path d="M 31.046875 -35.484375 L 45.15625 -35.484375 L 17.28125 17.984375 L 3.1875 17.984375 L 15.421875 -5.53125 L -1.390625 -35.484375 L 12.71875 -35.484375 L 22.609375 -17.28125 Z M 31.046875 -35.484375 "/></g></g></g></svg>